<mxfile host="app.diagrams.net" agent="Mozilla/5.0 (Windows NT 10.0; Win64; x64) AppleWebKit/537.36 (KHTML, like Gecko) Chrome/135.0.0.0 Safari/537.36" version="26.2.13">
  <diagram name="Página-1" id="0IFraQ693DOCMShJMH72">
    <mxGraphModel dx="938" dy="509" grid="1" gridSize="10" guides="1" tooltips="1" connect="1" arrows="1" fold="1" page="1" pageScale="1" pageWidth="827" pageHeight="1169" math="0" shadow="0">
      <root>
        <mxCell id="0" />
        <mxCell id="1" parent="0" />
        <mxCell id="kUJ0kM5BqTdnNoaZAFp2-1" value="Inicio" style="ellipse;whiteSpace=wrap;html=1;" parent="1" vertex="1">
          <mxGeometry x="340" y="10" width="120" height="80" as="geometry" />
        </mxCell>
        <mxCell id="kUJ0kM5BqTdnNoaZAFp2-2" value="informe a temperatura" style="shape=display;whiteSpace=wrap;html=1;" parent="1" vertex="1">
          <mxGeometry x="360" y="120" width="80" height="40" as="geometry" />
        </mxCell>
        <mxCell id="kUJ0kM5BqTdnNoaZAFp2-9" style="edgeStyle=orthogonalEdgeStyle;rounded=0;orthogonalLoop=1;jettySize=auto;html=1;exitX=0.5;exitY=1;exitDx=0;exitDy=0;entryX=0.5;entryY=0;entryDx=0;entryDy=0;" parent="1" source="kUJ0kM5BqTdnNoaZAFp2-3" target="kUJ0kM5BqTdnNoaZAFp2-6" edge="1">
          <mxGeometry relative="1" as="geometry" />
        </mxCell>
        <mxCell id="kUJ0kM5BqTdnNoaZAFp2-3" value="temperatura" style="shape=manualInput;whiteSpace=wrap;html=1;" parent="1" vertex="1">
          <mxGeometry x="360" y="180" width="80" height="80" as="geometry" />
        </mxCell>
        <mxCell id="kUJ0kM5BqTdnNoaZAFp2-4" style="edgeStyle=orthogonalEdgeStyle;rounded=0;orthogonalLoop=1;jettySize=auto;html=1;exitX=0.5;exitY=1;exitDx=0;exitDy=0;entryX=0;entryY=0;entryDx=40;entryDy=0;entryPerimeter=0;" parent="1" source="kUJ0kM5BqTdnNoaZAFp2-1" target="kUJ0kM5BqTdnNoaZAFp2-2" edge="1">
          <mxGeometry relative="1" as="geometry" />
        </mxCell>
        <mxCell id="kUJ0kM5BqTdnNoaZAFp2-5" style="edgeStyle=orthogonalEdgeStyle;rounded=0;orthogonalLoop=1;jettySize=auto;html=1;exitX=0;exitY=0;exitDx=40;exitDy=40;exitPerimeter=0;entryX=0.505;entryY=0.202;entryDx=0;entryDy=0;entryPerimeter=0;" parent="1" source="kUJ0kM5BqTdnNoaZAFp2-2" target="kUJ0kM5BqTdnNoaZAFp2-3" edge="1">
          <mxGeometry relative="1" as="geometry" />
        </mxCell>
        <mxCell id="kUJ0kM5BqTdnNoaZAFp2-7" style="edgeStyle=orthogonalEdgeStyle;rounded=0;orthogonalLoop=1;jettySize=auto;html=1;exitX=0;exitY=0.5;exitDx=0;exitDy=0;entryX=0.046;entryY=0.39;entryDx=0;entryDy=0;entryPerimeter=0;" parent="1" source="kUJ0kM5BqTdnNoaZAFp2-6" target="kUJ0kM5BqTdnNoaZAFp2-2" edge="1">
          <mxGeometry relative="1" as="geometry">
            <mxPoint x="280" y="130" as="targetPoint" />
            <Array as="points">
              <mxPoint x="280" y="345" />
              <mxPoint x="280" y="136" />
            </Array>
          </mxGeometry>
        </mxCell>
        <mxCell id="kUJ0kM5BqTdnNoaZAFp2-8" value="Nao" style="edgeLabel;html=1;align=center;verticalAlign=middle;resizable=0;points=[];" parent="kUJ0kM5BqTdnNoaZAFp2-7" vertex="1" connectable="0">
          <mxGeometry x="-0.0178" relative="1" as="geometry">
            <mxPoint as="offset" />
          </mxGeometry>
        </mxCell>
        <mxCell id="kUJ0kM5BqTdnNoaZAFp2-10" style="edgeStyle=orthogonalEdgeStyle;rounded=0;orthogonalLoop=1;jettySize=auto;html=1;exitX=1;exitY=0.5;exitDx=0;exitDy=0;" parent="1" source="kUJ0kM5BqTdnNoaZAFp2-6" edge="1">
          <mxGeometry relative="1" as="geometry">
            <mxPoint x="540" y="50" as="targetPoint" />
            <Array as="points">
              <mxPoint x="520" y="345" />
            </Array>
          </mxGeometry>
        </mxCell>
        <mxCell id="kUJ0kM5BqTdnNoaZAFp2-11" value="Sim" style="edgeLabel;html=1;align=center;verticalAlign=middle;resizable=0;points=[];" parent="kUJ0kM5BqTdnNoaZAFp2-10" vertex="1" connectable="0">
          <mxGeometry x="-0.0277" relative="1" as="geometry">
            <mxPoint as="offset" />
          </mxGeometry>
        </mxCell>
        <mxCell id="kUJ0kM5BqTdnNoaZAFp2-6" value="temperatura é um valor numérico?" style="rhombus;whiteSpace=wrap;html=1;" parent="1" vertex="1">
          <mxGeometry x="340" y="280" width="120" height="130" as="geometry" />
        </mxCell>
        <mxCell id="kUJ0kM5BqTdnNoaZAFp2-12" value="&amp;nbsp;você quer converter para °F ou °C" style="shape=display;whiteSpace=wrap;html=1;" parent="1" vertex="1">
          <mxGeometry x="540" y="20" width="110" height="60" as="geometry" />
        </mxCell>
        <mxCell id="kUJ0kM5BqTdnNoaZAFp2-19" style="edgeStyle=orthogonalEdgeStyle;rounded=0;orthogonalLoop=1;jettySize=auto;html=1;exitX=0.5;exitY=1;exitDx=0;exitDy=0;entryX=0.5;entryY=0;entryDx=0;entryDy=0;" parent="1" source="kUJ0kM5BqTdnNoaZAFp2-13" target="kUJ0kM5BqTdnNoaZAFp2-16" edge="1">
          <mxGeometry relative="1" as="geometry" />
        </mxCell>
        <mxCell id="kUJ0kM5BqTdnNoaZAFp2-13" value="conversao" style="shape=manualInput;whiteSpace=wrap;html=1;" parent="1" vertex="1">
          <mxGeometry x="555" y="90" width="80" height="80" as="geometry" />
        </mxCell>
        <mxCell id="kUJ0kM5BqTdnNoaZAFp2-15" style="edgeStyle=orthogonalEdgeStyle;rounded=0;orthogonalLoop=1;jettySize=auto;html=1;exitX=0;exitY=0;exitDx=53.75;exitDy=60;exitPerimeter=0;entryX=0.434;entryY=0.216;entryDx=0;entryDy=0;entryPerimeter=0;" parent="1" source="kUJ0kM5BqTdnNoaZAFp2-12" target="kUJ0kM5BqTdnNoaZAFp2-13" edge="1">
          <mxGeometry relative="1" as="geometry" />
        </mxCell>
        <mxCell id="kUJ0kM5BqTdnNoaZAFp2-17" style="edgeStyle=orthogonalEdgeStyle;rounded=0;orthogonalLoop=1;jettySize=auto;html=1;exitX=0.5;exitY=1;exitDx=0;exitDy=0;" parent="1" source="kUJ0kM5BqTdnNoaZAFp2-16" edge="1">
          <mxGeometry relative="1" as="geometry">
            <mxPoint x="594.8965517241379" y="360" as="targetPoint" />
          </mxGeometry>
        </mxCell>
        <mxCell id="kUJ0kM5BqTdnNoaZAFp2-18" value="°C" style="edgeLabel;html=1;align=center;verticalAlign=middle;resizable=0;points=[];" parent="kUJ0kM5BqTdnNoaZAFp2-17" vertex="1" connectable="0">
          <mxGeometry x="-0.1807" y="1" relative="1" as="geometry">
            <mxPoint as="offset" />
          </mxGeometry>
        </mxCell>
        <mxCell id="kUJ0kM5BqTdnNoaZAFp2-28" style="edgeStyle=orthogonalEdgeStyle;rounded=0;orthogonalLoop=1;jettySize=auto;html=1;exitX=1;exitY=0.5;exitDx=0;exitDy=0;" parent="1" source="kUJ0kM5BqTdnNoaZAFp2-16" edge="1">
          <mxGeometry relative="1" as="geometry">
            <mxPoint x="700.0000000000002" y="230.1379310344828" as="targetPoint" />
          </mxGeometry>
        </mxCell>
        <mxCell id="kUJ0kM5BqTdnNoaZAFp2-29" value="°F" style="edgeLabel;html=1;align=center;verticalAlign=middle;resizable=0;points=[];" parent="kUJ0kM5BqTdnNoaZAFp2-28" vertex="1" connectable="0">
          <mxGeometry x="-0.1458" y="-1" relative="1" as="geometry">
            <mxPoint as="offset" />
          </mxGeometry>
        </mxCell>
        <mxCell id="kUJ0kM5BqTdnNoaZAFp2-16" value="se" style="rhombus;whiteSpace=wrap;html=1;" parent="1" vertex="1">
          <mxGeometry x="555" y="190" width="80" height="80" as="geometry" />
        </mxCell>
        <mxCell id="kUJ0kM5BqTdnNoaZAFp2-20" value="f_convertido = temperatura / 18 - 32" style="rounded=0;whiteSpace=wrap;html=1;" parent="1" vertex="1">
          <mxGeometry x="535" y="370" width="120" height="60" as="geometry" />
        </mxCell>
        <mxCell id="kUJ0kM5BqTdnNoaZAFp2-21" value="f_convertido" style="shape=parallelogram;perimeter=parallelogramPerimeter;whiteSpace=wrap;html=1;fixedSize=1;" parent="1" vertex="1">
          <mxGeometry x="530" y="450" width="120" height="60" as="geometry" />
        </mxCell>
        <mxCell id="kUJ0kM5BqTdnNoaZAFp2-27" style="edgeStyle=orthogonalEdgeStyle;rounded=0;orthogonalLoop=1;jettySize=auto;html=1;exitX=0;exitY=0;exitDx=61.25;exitDy=55;exitPerimeter=0;entryX=0.5;entryY=0;entryDx=0;entryDy=0;" parent="1" source="kUJ0kM5BqTdnNoaZAFp2-22" target="kUJ0kM5BqTdnNoaZAFp2-23" edge="1">
          <mxGeometry relative="1" as="geometry" />
        </mxCell>
        <mxCell id="kUJ0kM5BqTdnNoaZAFp2-22" value="o valor convertido para graus célsius é f_convertido" style="shape=display;whiteSpace=wrap;html=1;" parent="1" vertex="1">
          <mxGeometry x="520" y="540" width="120" height="55" as="geometry" />
        </mxCell>
        <mxCell id="kUJ0kM5BqTdnNoaZAFp2-23" value="fim" style="ellipse;whiteSpace=wrap;html=1;" parent="1" vertex="1">
          <mxGeometry x="520" y="620" width="120" height="80" as="geometry" />
        </mxCell>
        <mxCell id="kUJ0kM5BqTdnNoaZAFp2-25" style="edgeStyle=orthogonalEdgeStyle;rounded=0;orthogonalLoop=1;jettySize=auto;html=1;exitX=0.5;exitY=1;exitDx=0;exitDy=0;entryX=0.541;entryY=0;entryDx=0;entryDy=0;entryPerimeter=0;" parent="1" source="kUJ0kM5BqTdnNoaZAFp2-20" target="kUJ0kM5BqTdnNoaZAFp2-21" edge="1">
          <mxGeometry relative="1" as="geometry" />
        </mxCell>
        <mxCell id="kUJ0kM5BqTdnNoaZAFp2-26" style="edgeStyle=orthogonalEdgeStyle;rounded=0;orthogonalLoop=1;jettySize=auto;html=1;exitX=0.5;exitY=1;exitDx=0;exitDy=0;entryX=0.594;entryY=-0.052;entryDx=0;entryDy=0;entryPerimeter=0;" parent="1" source="kUJ0kM5BqTdnNoaZAFp2-21" target="kUJ0kM5BqTdnNoaZAFp2-22" edge="1">
          <mxGeometry relative="1" as="geometry" />
        </mxCell>
        <mxCell id="kUJ0kM5BqTdnNoaZAFp2-34" style="edgeStyle=orthogonalEdgeStyle;rounded=0;orthogonalLoop=1;jettySize=auto;html=1;exitX=1;exitY=0.5;exitDx=0;exitDy=0;" parent="1" source="kUJ0kM5BqTdnNoaZAFp2-30" target="kUJ0kM5BqTdnNoaZAFp2-31" edge="1">
          <mxGeometry relative="1" as="geometry" />
        </mxCell>
        <mxCell id="kUJ0kM5BqTdnNoaZAFp2-30" value="c_convertido&amp;nbsp;= temperatura * 1.8 + 32" style="rounded=0;whiteSpace=wrap;html=1;" parent="1" vertex="1">
          <mxGeometry x="707" y="200" width="120" height="60" as="geometry" />
        </mxCell>
        <mxCell id="kUJ0kM5BqTdnNoaZAFp2-31" value="c_convertido" style="shape=parallelogram;perimeter=parallelogramPerimeter;whiteSpace=wrap;html=1;fixedSize=1;" parent="1" vertex="1">
          <mxGeometry x="860" y="200" width="120" height="60" as="geometry" />
        </mxCell>
        <mxCell id="kUJ0kM5BqTdnNoaZAFp2-32" value="o valor convertido para graus fahreneit é c_convertido" style="shape=display;whiteSpace=wrap;html=1;" parent="1" vertex="1">
          <mxGeometry x="860" y="310" width="120" height="55" as="geometry" />
        </mxCell>
        <mxCell id="kUJ0kM5BqTdnNoaZAFp2-33" value="fim" style="ellipse;whiteSpace=wrap;html=1;" parent="1" vertex="1">
          <mxGeometry x="870" y="400" width="120" height="80" as="geometry" />
        </mxCell>
        <mxCell id="kUJ0kM5BqTdnNoaZAFp2-35" style="edgeStyle=orthogonalEdgeStyle;rounded=0;orthogonalLoop=1;jettySize=auto;html=1;exitX=0.5;exitY=1;exitDx=0;exitDy=0;entryX=0;entryY=0;entryDx=61.25;entryDy=0;entryPerimeter=0;" parent="1" source="kUJ0kM5BqTdnNoaZAFp2-31" target="kUJ0kM5BqTdnNoaZAFp2-32" edge="1">
          <mxGeometry relative="1" as="geometry" />
        </mxCell>
        <mxCell id="kUJ0kM5BqTdnNoaZAFp2-36" style="edgeStyle=orthogonalEdgeStyle;rounded=0;orthogonalLoop=1;jettySize=auto;html=1;exitX=0;exitY=0;exitDx=61.25;exitDy=55;exitPerimeter=0;entryX=0.426;entryY=0;entryDx=0;entryDy=0;entryPerimeter=0;" parent="1" source="kUJ0kM5BqTdnNoaZAFp2-32" target="kUJ0kM5BqTdnNoaZAFp2-33" edge="1">
          <mxGeometry relative="1" as="geometry" />
        </mxCell>
      </root>
    </mxGraphModel>
  </diagram>
</mxfile>
